<?xml version="1.0" encoding="utf-8"?>
<!-- Generator: Adobe Illustrator 22.0.1, SVG Export Plug-In . SVG Version: 6.00 Build 0)  -->
<svg version="1.1" id="Layer_1" xmlns="http://www.w3.org/2000/svg" xmlns:xlink="http://www.w3.org/1999/xlink" x="0px" y="0px"
	 viewBox="0 0 360 162.2" style="enable-background:new 0 0 360 162.2;" xml:space="preserve">
<style type="text/css">
	.st0{fill:#003D72;}
	.st1{fill:#8DC63F;}
</style>
<g>
	<g>
		<path id="SVGID_1_" class="st0" d="M17.1,31.4c-6,5.2-9,11.7-9,19.5c0,6.2,2.1,11.2,6.2,14.9c3.7,3.7,11,6.9,22,9.6
			c1.9,0.6,4.6,1.2,8.4,1.9c8.7,1.8,13,4.6,13,8.4c0,2.5-1.2,4.4-3.7,5.9c-2.7,1.4-5.9,2.2-9.6,2.2c-5.2,0-9.3-1-12.4-3.1
			c-2.9-2.1-4.4-5.2-4.6-9.3H6.2v0.9c0,9.1,3,16,9,20.7c5.8,4.7,14.6,7.1,26.3,7.1c12.4,0,21.7-2.3,27.9-6.8c6.6-5,9.9-12,9.9-21.1
			c0-1.7-0.2-3.4-0.5-5c-1-4.8-3.8-8.9-7.8-11.6c-3.9-2.6-8.6-4.3-13.1-5.6c-5.6-1.7-11.4-2.7-17-4.2c-2.8-0.8-5.7-1.6-8.2-3.1
			c-1.3-0.8-3.2-2.4-3.2-4.2c0-2.5,1-4.3,2.8-5.6c2.1-1.2,5.2-1.8,9.3-1.8c4.3,0,7.8,0.9,10.2,2.8c0.8,0.8,1.6,1.6,2.5,2.5
			c2.1,3.5,5.1,5.3,9,5.3h13.3c-0.4-8.3-3.6-15-9.6-20.1c-6.4-4.8-15-7.1-25.7-7.1C31.3,24.3,23.3,26.6,17.1,31.4"/>
	</g>
	<g>
		<defs>
			<path id="SVGID_2_" d="M17.1,31.4c-6,5.2-9,11.7-9,19.5c0,6.2,2.1,11.2,6.2,14.9c3.7,3.7,11,6.9,22,9.6c1.9,0.6,4.6,1.2,8.4,1.9
				c8.7,1.8,13,4.6,13,8.4c0,2.5-1.2,4.4-3.7,5.9c-2.7,1.4-5.9,2.2-9.6,2.2c-5.2,0-9.3-1-12.4-3.1c-2.9-2.1-4.4-5.2-4.6-9.3H6.2v0.9
				c0,9.1,3,16,9,20.7c5.8,4.7,14.6,7.1,26.3,7.1c12.4,0,21.7-2.3,27.9-6.8c6.6-5,9.9-12,9.9-21.1c0-1.7-0.2-3.4-0.5-5
				c-1-4.8-3.8-8.9-7.8-11.6c-3.9-2.6-8.6-4.3-13.1-5.6c-5.6-1.7-11.4-2.7-17-4.2c-2.8-0.8-5.7-1.6-8.2-3.1
				c-1.3-0.8-3.2-2.4-3.2-4.2c0-2.5,1-4.3,2.8-5.6c2.1-1.2,5.2-1.8,9.3-1.8c4.3,0,7.8,0.9,10.2,2.8c0.8,0.8,1.6,1.6,2.5,2.5
				c2.1,3.5,5.1,5.3,9,5.3h13.3c-0.4-8.3-3.6-15-9.6-20.1c-6.4-4.8-15-7.1-25.7-7.1C31.3,24.3,23.3,26.6,17.1,31.4"/>
		</defs>
		<use xlink:href="#SVGID_2_"  style="overflow:visible;fill:#003D72;"/>
		<clipPath id="SVGID_4_">
			<use xlink:href="#SVGID_2_"  style="overflow:visible;"/>
		</clipPath>
	</g>
</g>
<g>
	<g>
		<path id="SVGID_3_" class="st0" d="M83.6,59.9L83.6,59.9c0,0.2,0,0.3,0,0.5v48.2h21.6V59.1c0-7.9,6.4-14.4,14.4-14.4
			c7.9,0,14.4,6.4,14.4,14.4c0,0.2,0.1,0.4,0.1,0.6v38.4c0,3.1,1,5.6,2.9,7.6c2,2,4.5,2.9,7.6,2.9h10.8V60.4c0-0.3,0-0.6-0.1-0.9
			c-0.2-19.6-16.2-35.4-35.8-35.4C99.6,24.1,83.6,40.1,83.6,59.9"/>
	</g>
	<g>
		<defs>
			<path id="SVGID_6_" d="M83.6,59.9L83.6,59.9c0,0.2,0,0.3,0,0.5v48.2h21.6V59.1c0-7.9,6.4-14.4,14.4-14.4
				c7.9,0,14.4,6.4,14.4,14.4c0,0.2,0.1,0.4,0.1,0.6v38.4c0,3.1,1,5.6,2.9,7.6c2,2,4.5,2.9,7.6,2.9h10.8V60.4c0-0.3,0-0.6-0.1-0.9
				c-0.2-19.6-16.2-35.4-35.8-35.4C99.6,24.1,83.6,40.1,83.6,59.9"/>
		</defs>
		<use xlink:href="#SVGID_6_"  style="overflow:visible;fill:#003D72;"/>
		<clipPath id="SVGID_8_">
			<use xlink:href="#SVGID_6_"  style="overflow:visible;"/>
		</clipPath>
	</g>
</g>
<g>
	<g>
		<path id="SVGID_5_" class="st0" d="M257.6,66.4c0-11.9,9.6-21.5,21.5-21.5s21.5,9.6,21.5,21.5s-9.6,21.5-21.5,21.5
			C267.2,87.8,257.6,78.2,257.6,66.4 M274.8,24.6c-0.9,0.1-1.8,0.2-2.7,0.3c-0.5,0.1-1,0.1-1.4,0.2c-0.8,0.1-1.6,0.3-2.4,0.5
			c-0.6,0.2-1.1,0.3-1.7,0.4c-0.7,0.2-1.3,0.4-1.9,0.6c-0.7,0.2-1.3,0.5-2,0.7c-0.5,0.2-0.9,0.4-1.4,0.6c-0.8,0.4-1.6,0.8-2.4,1.2
			c-0.3,0.2-0.6,0.3-0.9,0.5c-1,0.5-1.9,1.1-2.9,1.7c-0.1,0.1-0.2,0.1-0.3,0.2c-11.2,7.8-18.5,20.6-18.5,35.1c0,0.3,0,0.5,0,0.8
			c0,0.2,0.1,0.4,0.1,0.6c0,0.1,0,0.1,0,0.2s0,0.2,0,0.3v70.4h10.5c2.9,0,5.4-1,7.4-3.1c2.1-2.1,3.1-4.5,3.1-7.4v-25.3v-0.3
			c6.2,3.6,13.3,5.8,21,5.8c23.3,0,42.1-18.9,42.1-42.1c0-2.9-0.3-5.7-0.8-8.4c-4-19.2-20.9-33.6-41.2-33.6
			C277.2,24.5,276,24.5,274.8,24.6"/>
	</g>
	<g>
		<defs>
			<path id="SVGID_10_" d="M257.6,66.4c0-11.9,9.6-21.5,21.5-21.5s21.5,9.6,21.5,21.5s-9.6,21.5-21.5,21.5
				C267.2,87.8,257.6,78.2,257.6,66.4 M274.8,24.6c-0.9,0.1-1.8,0.2-2.7,0.3c-0.5,0.1-1,0.1-1.4,0.2c-0.8,0.1-1.6,0.3-2.4,0.5
				c-0.6,0.2-1.1,0.3-1.7,0.4c-0.7,0.2-1.3,0.4-1.9,0.6c-0.7,0.2-1.3,0.5-2,0.7c-0.5,0.2-0.9,0.4-1.4,0.6c-0.8,0.4-1.6,0.8-2.4,1.2
				c-0.3,0.2-0.6,0.3-0.9,0.5c-1,0.5-1.9,1.1-2.9,1.7c-0.1,0.1-0.2,0.1-0.3,0.2c-11.2,7.8-18.5,20.6-18.5,35.1c0,0.3,0,0.5,0,0.8
				c0,0.2,0.1,0.4,0.1,0.6c0,0.1,0,0.1,0,0.2s0,0.2,0,0.3v70.4h10.5c2.9,0,5.4-1,7.4-3.1c2.1-2.1,3.1-4.5,3.1-7.4v-25.3v-0.3
				c6.2,3.6,13.3,5.8,21,5.8c23.3,0,42.1-18.9,42.1-42.1c0-2.9-0.3-5.7-0.8-8.4c-4-19.2-20.9-33.6-41.2-33.6
				C277.2,24.5,276,24.5,274.8,24.6"/>
		</defs>
		<use xlink:href="#SVGID_10_"  style="overflow:visible;fill:#003D72;"/>
		<clipPath id="SVGID_12_">
			<use xlink:href="#SVGID_10_"  style="overflow:visible;"/>
		</clipPath>
	</g>
</g>
<g>
	<g>
		<path id="SVGID_7_" class="st0" d="M182.1,91.7c-3.9-3-3.6-9-0.8-12.4c3.4-4.1,10.8-4.3,16-5.4c5.4-1.1,9.5-2.3,12.5-3.6v7
			c0,5.2-1.7,9.3-5.2,12.2c-3.4,3-8.1,4.5-14.1,4.5C186.8,93.9,184,93.1,182.1,91.7 M171.1,31.4c-5,4.1-7.9,9.4-8.7,15.8h20.7
			c1-2.3,2.7-3.8,5-4.6c5.7-2,21.4-3,21.4,6.2c0,7.1-11.7,7.8-16.5,8.5c-8.8,1.3-17.8,2.8-25.1,8.2c-5.1,3.7-7.6,9.9-7.6,18.6
			c0,9.3,2.8,16,8.4,20c5.6,4,12.1,6.1,19.5,6.1c3.7,0,8-0.3,12.8-0.8c3.7-0.4,7.3-1.3,10.7-2.7c0.1,0.1,0.2,0.3,0.3,0.4
			c2.1,2,4.5,3.1,7.4,3.1h10.5V76c0-0.1,0-0.2,0-0.3V47.5c0-7.4-3-13.2-9-17.3c-5.8-3.9-14.5-5.9-26-5.9
			C184.6,24.3,176.6,26.6,171.1,31.4"/>
	</g>
	<g>
		<defs>
			<path id="SVGID_13_" d="M182.1,91.7c-3.9-3-3.6-9-0.8-12.4c3.4-4.1,10.8-4.3,16-5.4c5.4-1.1,9.5-2.3,12.5-3.6v7
				c0,5.2-1.7,9.3-5.2,12.2c-3.4,3-8.1,4.5-14.1,4.5C186.8,93.9,184,93.1,182.1,91.7 M171.1,31.4c-5,4.1-7.9,9.4-8.7,15.8h20.7
				c1-2.3,2.7-3.8,5-4.6c5.7-2,21.4-3,21.4,6.2c0,7.1-11.7,7.8-16.5,8.5c-8.8,1.3-17.8,2.8-25.1,8.2c-5.1,3.7-7.6,9.9-7.6,18.6
				c0,9.3,2.8,16,8.4,20c5.6,4,12.1,6.1,19.5,6.1c3.7,0,8-0.3,12.8-0.8c3.7-0.4,7.3-1.3,10.7-2.7c0.1,0.1,0.2,0.3,0.3,0.4
				c2.1,2,4.5,3.1,7.4,3.1h10.5V76c0-0.1,0-0.2,0-0.3V47.5c0-7.4-3-13.2-9-17.3c-5.8-3.9-14.5-5.9-26-5.9
				C184.6,24.3,176.6,26.6,171.1,31.4"/>
		</defs>
		<use xlink:href="#SVGID_13_"  style="overflow:visible;fill:#003D72;"/>
		<clipPath id="SVGID_14_">
			<use xlink:href="#SVGID_13_"  style="overflow:visible;"/>
		</clipPath>
	</g>
</g>
<g>
	<g>
		<path id="SVGID_9_" class="st0" d="M339.4,7.6c-3,0-5.5,1-7.6,3.1s-3.1,4.6-3.1,7.5l5.8,62.3h15.8l3.5-73h-14.4V7.6z"/>
	</g>
	<g>
		<defs>
			<path id="SVGID_15_" d="M339.4,7.6c-3,0-5.5,1-7.6,3.1s-3.1,4.6-3.1,7.5l5.8,62.3h15.8l3.5-73h-14.4V7.6z"/>
		</defs>
		<use xlink:href="#SVGID_15_"  style="overflow:visible;fill:#003D72;"/>
		<clipPath id="SVGID_16_">
			<use xlink:href="#SVGID_15_"  style="overflow:visible;"/>
		</clipPath>
	</g>
</g>
<g>
	<g>
		<path id="SVGID_11_" class="st0" d="M332.8,89.1v20h11.8c5,0,7.5-2.5,7.5-7.5V89.1H332.8z"/>
	</g>
	<g>
		<defs>
			<path id="SVGID_17_" d="M332.8,89.1v20h11.8c5,0,7.5-2.5,7.5-7.5V89.1H332.8z"/>
		</defs>
		<use xlink:href="#SVGID_17_"  style="overflow:visible;fill:#003D72;"/>
		<clipPath id="SVGID_18_">
			<use xlink:href="#SVGID_17_"  style="overflow:visible;"/>
		</clipPath>
	</g>
</g>
<g>
	<path class="st1" d="M12.7,154v-20.4H9.1v-4.3h3.6v-3.9c0-4.1,2.4-6.2,7.2-6.2c1.3,0,2.7,0,4,0.1v5.2c-0.6-0.1-1.3-0.1-1.9-0.1
		c-2.2,0-3.3,1-3.3,3.1v1.7H24v4.3h-5.4v20.4h-5.9V154z"/>
</g>
<path class="st1" d="M32.8,119.2h5.9v6.1h-5.9V119.2z M32.8,129.3h5.9v24.8h-5.9V129.3z"/>
<path class="st1" d="M50.3,154v-24.7h5.9v2.5c1.7-2,3.9-3,6.7-3c5.7,0,8.5,2.8,8.5,8.4v16.9h-5.9V139c0-3-1.4-4.4-4.1-4.4
	c-1.5,0-2.7,0.5-3.7,1.5c-1,1.1-1.6,2.8-1.6,5v13.1h-5.8V154z"/>
<path class="st1" d="M103.6,136.8v13.1c0,1.8,0.3,3.2,0.9,4.2h-6.2c-0.4-0.6-0.6-1.3-0.6-2.3c-2.3,1.9-5,2.8-8,2.8
	c-2.4,0-4.4-0.7-6-2.1c-1.6-1.4-2.4-3.3-2.4-5.6c0-4.2,2.5-6.8,7.5-7.7l2.5-0.5c1.6-0.3,3.8-0.8,6.4-1.5v-0.7c0-2.1-1.5-3.1-4.7-3.1
	c-1.7,0-2.9,0.3-3.5,0.8c-0.7,0.6-1,1.5-1,2.9l-5.9-0.2c0-2.7,1.1-4.8,3.2-6.2c1.9-1.2,4.3-1.9,7.2-1.9c3.2,0,5.6,0.5,7.3,1.4
	C102.4,131.4,103.6,133.6,103.6,136.8 M97.7,145.2v-3.5c-0.6,0.3-1.6,0.6-2.8,0.9l-3.2,0.7c-1.3,0.3-2.3,0.7-2.9,1
	c-0.8,0.5-1.2,1.3-1.2,2.4c0,0.9,0.4,1.7,1.1,2.2c0.7,0.6,1.6,0.9,2.7,0.9c1.6,0,3-0.4,4.2-1.1C96.9,147.8,97.7,146.6,97.7,145.2"/>
<path class="st1" d="M114.8,154v-24.7h5.9v2.5c1.7-2,3.9-3,6.7-3c5.6,0,8.5,2.8,8.5,8.4v16.9H130V139c0-3-1.3-4.4-4.1-4.4
	c-1.5,0-2.7,0.5-3.7,1.5c-1,1.1-1.5,2.8-1.5,5v13.1h-5.9V154z"/>
<path class="st1" d="M168.9,135.7l-5.2,2.4c-0.4-1.2-1.1-2.2-2-2.9s-2-1.1-3.2-1.1c-2,0-3.6,0.8-4.7,2.3c-1.1,1.4-1.6,3.1-1.6,5.2
	c0,2.1,0.5,3.8,1.5,5.2c1.1,1.5,2.6,2.3,4.5,2.3c2.7,0,4.7-1.6,6-4.8l5,2.7c-2.3,5.1-6,7.6-11.1,7.6c-3.7,0-6.6-1.2-8.9-3.7
	c-2.2-2.4-3.2-5.5-3.2-9.3s1.1-6.9,3.4-9.3c2.2-2.4,5.3-3.6,9.2-3.6C163.5,128.7,167,131,168.9,135.7"/>
<path class="st1" d="M201.2,143.1h-18.1c0,1.8,0.7,3.2,2,4.4c1.2,1.1,2.6,1.7,4.3,1.7c3.1,0,5.4-1.2,7.1-3.5l5,2.9
	c-2.6,4-6.6,6.1-12.1,6.1c-3.9,0-7-1.2-9.2-3.7c-2.2-2.4-3.3-5.5-3.3-9.3s1.1-6.9,3.4-9.3c2.3-2.4,5.3-3.6,9.2-3.6
	C197.3,128.7,201.2,133.5,201.2,143.1 M183.1,138.5H195c0-0.9-0.4-1.9-1.3-2.9c-1.1-1.3-2.5-2-4.3-2c-1.7,0-3,0.5-4.2,1.4
	C184.1,135.9,183.4,137.1,183.1,138.5"/>
</svg>
